<svg id="Calque_1" data-name="Calque 1" xmlns="http://www.w3.org/2000/svg" viewBox="0 0 1080 1080"><defs><style>.cls-1{fill:#020204;}</style></defs><path class="cls-1" d="M690.33,564.83c-3.1,5.29-6.33,10.69-9.52,16a98.1,98.1,0,0,0,13.44.42c12.82-.11,81.1-11.07,44.45-27C724,552.24,705.39,562.51,690.33,564.83Z"/><path class="cls-1" d="M448.62,285.41q-16.06.06-35.75,7.36c-42.86,19.73-93.31,83-84.36,122,11.87,35.06,70.19,50.41,106.9,47.79q.3-1.83-12.1-3-47.44-3.46-67.63-23C309.21,388,415.5,306.05,448.62,285.41Z"/><path class="cls-1" d="M975.53,744.07a17.56,17.56,0,0,0-1.34-1.65c-31.75-35.7-233.47-19.81-300.88-18.89-57.68,2.49-74.54,5-95.11,4.49q0-.3,5.38-8.67C659.36,610,715.05,510.25,781.59,385c2.5,2.29,11.89,11,13.16,10.77q3.59,0,17.35-37.09C820,334.8,826.22,323.77,826.45,309c-1.11-4.26-16.45-18.27-20.33-18.55q-3,0-18,28.72c-44.85,78.91-88,156.93-135.16,233.58q-5.14-21,5.73-60.46c7.35-37,61.63-149.95,67.33-193.74.67-7.32-15.12-15.92-20-13.68-49.14,35.64-94.34,106.2-143.9,177.2C577.65,428.47,595.82,393,611,359.51,618.7,343.6,636,305.73,635.36,298a8.39,8.39,0,0,0-3.78-5.47,15.44,15.44,0,0,0-20.05,2.16c-3.7,3.86-8.24,9.79-17.11,18.42-46,49.82-77,90.68-118.63,147.57,20.09-46.2,94.05-179.49,32-199.36-22-7.05-42.06-1.52-62.89,7.71C381.26,247.61,291.75,328.38,260,384.15c-26.43,45.24-9.69,79.81,28.5,108.34,21,19,64,37.84,87,56.35a18,18,0,0,1,5.41,21.1c-14.78,33.68-122.41,50.15-152.49,52.71-36.24,3.19-70,4.11-102.84-3.52-2.94-15.91,18.57-44,33.23-48.09,3.93-2-5.72-8.7-9.5-10.17-15.56-8.41-33.52,2.66-46.42,14-23.14,19.7-.91,43.13,18.43,54.78,23.77,15,40.77,18.35,72.55,19.71,50.08,2.58,188.35-13.91,212-64.83a13.22,13.22,0,0,0,.7-9c-11.23-40.6-103.4-68-127.49-102.08-35.22-47.14,35.93-128.83,83.41-160,25.87-18,53.38-32,83-32a41.91,41.91,0,0,1,4.88.29c4,.47,6.1,1.32,6.15,6.19.15,15-13.86,43.18-30.34,65.42-.81,4.74,5,7.62,8.6,10.71,12.53,10.57,16.53,12.85,28.91-2.67,15.4-16.93,28.46-44.34,18.53-62.13a81.94,81.94,0,0,0-19.89-21.19c17.14-8.19,29.35-12,44.38-11.92C537.3,323.72,441.54,476.42,399,555.62c8.29,8.44,12.63,16.23,13.4,25.39,55.07-80.33,139.34-197.81,195.15-260.38h.37c-24.56,48.17-54,100.15-77.94,150.68-13.57,27-37.58,74.1-44.18,99-2.69,9.17,14.12,12.05,19.84,13.13,60.49-86.12,128.41-209.27,200.92-278.88C692.65,357.74,591.27,524,644.91,565.82c-21.38,34.32-43.64,68.37-67.31,102.09C566,603.11,496,576.32,435.23,599.71c-22.2,7.45-52.18,21.2-71.69,40.15-21.75,21.13-17.48,55.31,5,74.86.14.13,5,3.81,5.11,3.92,43.34,29.91,91,30.75,144.14,34.21-11,16.27-25.47,34.89-29.91,49,2.88,7.46,19.51,23.06,26.92,20.34,6.36-3.94,28-38.82,34.7-52,5.32-9.23,6.36-11.86,11.36-17.35,126.9-3.57,250.06-16.69,369.39-6.28q27.21,2.08,27.22,3.29c-2.52,4.55-29.59,30.64-27.52,31.11-1.27,4.77,2.86,8.76,6.28,12.26,7.6,7.71,6.06,3,20.64-3.29C984.37,775,994.22,771.16,975.53,744.07ZM547.1,685.26c-3.44,14.62-8.27,30.35-15.56,44.26-57.62,1.59-126.87.56-154.35-17.9-5-3.33-9.59-7.32-10.8-13.17-2.1-10.08,4.21-21.47,15.6-33.53,31.72-31.52,109-70.42,153.66-46.72a24.18,24.18,0,0,1,11.51,13.32C553.07,648.18,551.27,666.66,547.1,685.26Z"/></svg>